<?xml version="1.0" standalone="no"?>
<!DOCTYPE svg PUBLIC "-//W3C//DTD SVG 20010904//EN"
 "http://www.w3.org/TR/2001/REC-SVG-20010904/DTD/svg10.dtd">
<svg version="1.0" xmlns="http://www.w3.org/2000/svg"
 width="700.000000pt" height="700.000000pt" viewBox="0 0 700.000000 700.000000"
 preserveAspectRatio="xMidYMid meet">
<metadata>
Created by potrace 1.11, written by Peter Selinger 2001-2013
</metadata>
<g transform="translate(0.000000,700.000000) scale(0.100000,-0.100000)"
fill="#000000" stroke="none">
<path d="M1428 5392 c-7 -75 -5 -77 104 -87 225 -20 288 -87 303 -320 7 -108
8 -2882 1 -3011 -9 -171 -40 -244 -122 -290 -61 -35 -429 -50 -1302 -54 l-412
-2 0 -49 0 -48 1308 -1 c719 0 1462 -1 1652 -3 306 -2 504 5 542 18 7 2 33 6
58 9 53 5 223 40 298 61 125 36 151 44 227 75 269 108 476 241 660 425 274
273 439 610 511 1045 19 112 28 528 13 618 -4 26 -10 76 -13 112 -4 36 -9 72
-11 80 -2 8 -6 26 -9 40 -24 130 -67 279 -111 385 -91 221 -268 459 -443 597
-37 29 -69 55 -72 59 -11 13 -165 102 -240 139 -44 21 -119 53 -167 70 -49 18
-97 36 -108 41 -11 5 -31 10 -45 13 -14 2 -61 13 -105 24 -87 23 -289 58 -373
66 -191 18 -287 21 -627 17 -614 -6 -1312 -6 -1416 2 l-97 6 -4 -37z m1907
-76 c487 -60 784 -343 929 -888 29 -111 30 -115 61 -308 2 -14 7 -56 11 -95 3
-38 8 -72 9 -75 6 -10 18 -330 18 -460 0 -132 -12 -431 -18 -465 -2 -11 -7
-47 -10 -80 -9 -87 -41 -276 -60 -355 -3 -14 -8 -36 -11 -50 -3 -14 -14 -52
-25 -84 -10 -33 -19 -64 -19 -69 0 -5 -7 -23 -15 -40 -8 -18 -24 -57 -35 -87
-52 -136 -149 -280 -253 -375 -116 -108 -240 -174 -413 -220 -129 -34 -187
-40 -369 -40 -129 0 -172 4 -223 19 -109 34 -159 106 -182 263 -5 32 -8 740
-8 1573 0 1613 0 1616 48 1709 21 42 69 87 109 103 78 32 297 43 456 24z"/>
</g>
</svg>
